<?xml version="1.0" encoding="utf-8"?>
<!-- Generator: Adobe Illustrator 16.0.4, SVG Export Plug-In . SVG Version: 6.00 Build 0)  -->
<!DOCTYPE svg PUBLIC "-//W3C//DTD SVG 1.1//EN" "http://www.w3.org/Graphics/SVG/1.1/DTD/svg11.dtd">
<svg version="1.1" id="Layer_1" xmlns="http://www.w3.org/2000/svg" xmlns:xlink="http://www.w3.org/1999/xlink" x="0px" y="0px"
	 width="71.103px" height="50px" viewBox="289.13 115.208 371.335 261.123"
	 enable-background="new 289.13 115.208 371.335 261.123" xml:space="preserve">
<g>
	<path fill="#231F20" d="M340.652,244.633l-0.545-3.774h-6.91v24.418l3.682,0.545v2.319h-13.094v-2.319l3.682-0.545v-24.418h-6.91
		l-0.545,3.774h-2.457v-6.956h25.556v6.956H340.652L340.652,244.633z"/>
	<path fill="#231F20" d="M359.613,268.142v-2.183l3.41-0.547v-8.32h-9.095v8.32l3.41,0.547v2.183h-12.412v-2.183l3.547-0.547
		v-18.414l-3.547-0.546v-2.183h12.412v2.183l-3.41,0.546v7.184h9.095v-7.184l-3.41-0.546v-2.183h12.412v2.183l-3.545,0.546v18.414
		l3.545,0.547v2.183H359.613z"/>
	<path fill="#231F20" d="M395.259,268.142h-20.598v-2.183l3.547-0.547v-18.414l-3.547-0.546v-2.183h20.598v6.32h-2.317l-0.548-3.409
		h-8.729v7.093h5.455l0.547-3.047h2.045v8.821h-2.045L389.12,257h-5.455v8.229h8.729l0.548-3.41h2.317V268.142z"/>
	<path fill="#231F20" d="M424.221,268.687c-9.458,0-13.594-5.638-13.594-15.868c0-10.185,4.182-15.688,13.641-15.688
		c9.457,0,13.598,5.639,13.598,15.869C437.863,263.186,433.68,268.687,424.221,268.687z M424.268,240.451
		c-5.047,0-7.639,4.047-7.639,12.412c0,8.412,2.5,12.504,7.546,12.504c5.05,0,7.642-4.047,7.642-12.412
		C431.814,244.543,429.314,240.451,424.268,240.451z"/>
	<path fill="#231F20" d="M455.004,268.142v-2.183l3.408-0.547v-8.32h-9.092v8.32l3.41,0.547v2.183h-12.414v-2.183l3.547-0.547
		v-18.414l-3.547-0.546v-2.183h12.414v2.183l-3.41,0.546v7.184h9.092v-7.184l-3.408-0.546v-2.183h12.412v2.183l-3.547,0.546v18.414
		l3.547,0.547v2.183H455.004z"/>
	<path fill="#231F20" d="M470.371,268.142v-2.183l3.547-0.547v-18.414l-3.547-0.546v-2.183h12.549v2.183l-3.547,0.546v18.414
		l3.547,0.547v2.183H470.371z"/>
	<path fill="#231F20" d="M496.379,268.595c-8.049,0-11.549-4.502-11.549-12.413c0-7.911,3.545-12.322,11.594-12.322
		c8.048,0,11.55,4.503,11.55,12.413C507.973,264.186,504.427,268.595,496.379,268.595z M496.425,246.999
		c-3.818,0-5.865,2.773-5.865,9.185c0,6.456,1.955,9.275,5.772,9.275c3.82,0,5.912-2.773,5.912-9.185
		C502.244,249.817,500.242,246.999,496.425,246.999z"/>
	<path fill="#231F20" d="M532.843,268.687c-5.271,0-9.503-1.818-9.503-1.818v-6.502h2.593l0.592,4.184c0,0,1.955,0.681,5.411,0.681
		c3.546,0,6.729-1.182,6.729-5.047c0-3.5-2.455-4.001-5.457-5.001c-4.771-1.592-9.82-2.956-9.82-9.503
		c0-5.32,3.32-8.549,10.275-8.549c3.184,0,6.502,0.729,9.094,1.729v6.093h-2.592l-0.59-3.911c0,0-2.729-0.59-5.367-0.59
		c-2.637,0-5.365,0.909-5.365,4.41c0,7.593,15.279,2.592,15.279,14.731C544.119,265.322,540.391,268.687,532.843,268.687z"/>
	<path fill="#231F20" d="M565.67,250.863l-0.545-3.683h-5.274v18.231l3.549,0.547v2.183h-12.551v-2.183l3.548-0.547V247.18h-5.274
		l-0.545,3.683h-2.32v-6.594h21.734v6.594L565.67,250.863L565.67,250.863z"/>
	<path fill="#231F20" d="M582.582,268.142v-2.183l3.408-0.547l-1.682-4.318h-9.095l-1.684,4.318l3.409,0.547v2.183H566.53v-2.183
		l3.41-0.547l8.184-21.143h5.229l8.186,21.143l3.41,0.547v2.183H582.582z M579.762,248.862l-3.455,9.458h6.911L579.762,248.862z"/>
	<path fill="#231F20" d="M612.906,250.863l-0.547-3.683h-5.273v18.231l3.547,0.547v2.183h-12.551v-2.183l3.547-0.547V247.18h-5.273
		l-0.546,3.683h-2.316v-6.594h21.732v6.594L612.906,250.863L612.906,250.863z"/>
	<path fill="#231F20" d="M637.912,268.142h-20.598v-2.183l3.547-0.547v-18.414l-3.547-0.546v-2.183h20.598v6.32h-2.317l-0.548-3.409
		h-8.729v7.093h5.455l0.547-3.047h2.045v8.821h-2.045L631.773,257h-5.455v8.229h8.729l0.548-3.41h2.317V268.142z"/>
</g>
<g>
	<path fill="#231F20" d="M382.458,288.57v15.552c0,5.229-0.318,7.501-2.773,9.956c-1.772,1.771-4.684,2.638-9.002,2.638
		c-4.274,0-7.457-1.183-9.459-3.183c-2.591-2.592-2.317-6.457-2.317-9.821V288.57l-3.685-0.547v-2.317h13.096v2.317l-3.685,0.547
		v17.822c0,5.004,2.774,7.004,7.047,7.004c2.276,0,4.141-0.455,5.366-1.773c1.092-1.137,1.684-2.909,1.684-5.229V288.57
		l-3.684-0.547v-2.317h11.094v2.317L382.458,288.57z"/>
	<path fill="#231F20" d="M411.147,295.027v21.144h-4.273l-12.142-17.051v14.321l3.548,0.547v2.183h-10.688v-2.183l3.547-0.547
		v-18.414l-3.547-0.547v-2.185h8.321l11.64,16.277v-13.55l-3.545-0.547v-2.183h10.686v2.183L411.147,295.027z"/>
	<path fill="#231F20" d="M417.512,316.171v-2.183l3.547-0.547v-18.414l-3.547-0.547v-2.185h12.549v2.185l-3.547,0.547v18.414
		l3.547,0.547v2.183H417.512z"/>
	<path fill="#231F20" d="M456.706,295.027l-7.957,21.144h-5.274l-7.958-21.144l-3.405-0.547v-2.185h12.363v2.185l-3.409,0.547
		l6.05,16.369l6-16.369l-3.408-0.547v-2.185h10.412v2.185L456.706,295.027z"/>
	<path fill="#231F20" d="M482.577,316.171h-20.6v-2.183l3.547-0.547v-18.414l-3.547-0.547v-2.185h20.6v6.32h-2.32l-0.545-3.41
		h-8.729v7.094h5.454l0.549-3.047h2.046v8.82h-2.046l-0.549-3.048h-5.454v8.229h8.729l0.545-3.409h2.32V316.171z"/>
	<path fill="#231F20" d="M503.491,316.171l-2.229-5.457c-1.502-3.638-2.41-5.317-5.593-5.317h-0.409v8.047l3.409,0.548v2.183
		h-12.414v-2.183l3.548-0.548v-18.414l-3.548-0.547V292.3h12.052c2.455,0,5.317,0.138,7.186,1.865
		c1.227,1.137,1.91,2.683,1.91,4.454c0,2.773-1.82,5.273-4.32,6.048c2,1.5,3.729,6.41,4.729,8.774l3.412,0.547v2.182
		L503.491,316.171L503.491,316.171z M500.944,295.936c-0.911-0.953-2.865-0.861-4.094-0.861h-1.592v7.64h0.954
		c1.546,0,3.687,0.183,4.82-1.093c0.728-0.816,0.908-1.771,0.908-2.816C501.944,297.755,501.718,296.755,500.944,295.936z"/>
	<path fill="#231F20" d="M521.995,316.625c-4.455,0-8.186-1.5-8.186-1.5v-6.186h2.455l0.592,3.91c0,0,1.729,0.5,4.41,0.5
		c2.91,0,5.139-0.953,5.139-3.548c0-1.815-1-2.454-2.5-2.954c-4.41-1.502-10.049-2.138-10.049-8.095
		c0-4.272,2.953-6.867,8.818-6.867c2.686,0,5.455,0.55,7.866,1.41v5.91h-2.455l-0.592-3.729c0,0-2-0.453-4.229-0.453
		c-2.229,0-4.185,0.771-4.185,3.093c0,5.319,12.596,1.772,12.596,11.229C531.68,313.988,528.315,316.625,521.995,316.625z"/>
	<path fill="#231F20" d="M534.862,316.171v-2.183l3.547-0.547v-18.414l-3.547-0.547v-2.185h12.551v2.185l-3.548,0.547v18.414
		l3.548,0.547v2.183H534.862z"/>
	<path fill="#231F20" d="M569.419,298.893l-0.547-3.685H563.6v18.231l3.547,0.547v2.183h-12.552v-2.183l3.548-0.547v-18.231h-5.274
		l-0.544,3.685h-2.318v-6.595h21.734v6.595H569.419z"/>
	<path fill="#231F20" d="M596.835,295.027l-6.957,10.774v7.64l3.547,0.547v2.183h-12.549v-2.183l3.547-0.547v-7.64l-7.049-10.774
		l-3.41-0.547v-2.185h12.644v2.185l-3.41,0.547l4.91,7.729l4.863-7.729l-3.271-0.547v-2.185h10.549v2.185L596.835,295.027z"/>
</g>
<g>
	<path fill="#C3002F" d="M460.716,142.459l6.479-6.479h20.994l6.478,6.479v43.172l-6.478,6.478h-20.994l-6.479-6.478V142.459
		L460.716,142.459z M511.021,135.414l-16.015-15.971h-34.671l-16.096,16.106v57.012l16.096,16.105h34.671l16.015-15.928V135.414
		L511.021,135.414z"/>
	<path fill="#231F20" d="M442.142,193.488v-59.21l17.432-17.409l36.435-0.004l17.499,17.413l-0.308,59.334l-17.315,17.315
		l-36.311-0.002L442.142,193.488L442.142,193.488z M458.834,115.209l-18.339,18.332v60.699l18.213,18.441h37.931l18.21-18.333
		l0.124-60.808l-18.208-18.332L458.834,115.209L458.834,115.209z"/>
	<path fill="#231F20" d="M469.093,140.13h17.223l4.104,4.105v39.701l-3.953,3.955h-17.528l-3.896-3.895V144.18L469.093,140.13
		L469.093,140.13z M492.077,143.617l-5.146-5.145h-18.561l-5.071,5.072v41.043l4.962,4.961h18.896l4.92-4.92V143.617
		L492.077,143.617z"/>
</g>
<polygon fill="#231F20" points="353.406,332.773 353.406,334.486 602.061,334.486 602.061,332.773 "/>
<g>
	<path d="M289.13,365.954c0-6.149,4.53-10.351,10.29-10.351c3.54,0,6,1.711,7.59,3.961l-2.1,1.17c-1.14-1.682-3.209-2.91-5.49-2.91
		c-4.38,0-7.709,3.359-7.709,8.13c0,4.739,3.33,8.129,7.709,8.129c2.28,0,4.35-1.199,5.49-2.909l2.13,1.17
		c-1.68,2.279-4.08,3.961-7.62,3.961C293.66,376.305,289.13,372.104,289.13,365.954z"/>
	<path d="M309.41,365.954c0-5.91,3.99-10.351,9.93-10.351c5.91,0,9.93,4.439,9.93,10.351c0,5.909-4.02,10.351-9.93,10.351
		C313.4,376.305,309.41,371.863,309.41,365.954z M326.689,365.954c0-4.681-2.881-8.13-7.351-8.13c-4.5,0-7.35,3.449-7.35,8.13
		c0,4.649,2.85,8.129,7.35,8.129C323.81,374.083,326.689,370.604,326.689,365.954z"/>
	<path d="M333.17,375.943v-20.01h2.49v17.789h9.3v2.221H333.17z"/>
	<path d="M348.47,375.943v-20.01h2.49v17.789h9.3v2.221H348.47z"/>
	<path d="M363.77,375.943v-20.01h13.109v2.221h-10.62v6.449h10.41v2.221h-10.41v6.898h10.62v2.221H363.77z"/>
	<path d="M380.029,365.954c0-6.21,4.59-10.351,10.29-10.351c3.54,0,6,1.561,7.77,3.75l-1.979,1.229
		c-1.261-1.62-3.391-2.76-5.79-2.76c-4.379,0-7.709,3.358-7.709,8.13c0,4.738,3.329,8.158,7.709,8.158c2.399,0,4.38-1.17,5.37-2.159
		v-4.079h-6.87v-2.221h9.358v7.229c-1.859,2.069-4.59,3.449-7.859,3.449C384.619,376.333,380.029,372.163,380.029,365.954z"/>
	<path d="M402.229,375.943v-20.01h13.109v2.221h-10.62v6.449h10.41v2.221h-10.41v6.898h10.62v2.221H402.229z"/>
	<path d="M426.229,365.954c0-5.91,3.99-10.351,9.931-10.351c5.91,0,9.93,4.439,9.93,10.351c0,5.909-4.02,10.351-9.93,10.351
		C430.219,376.305,426.229,371.863,426.229,365.954z M443.508,365.954c0-4.681-2.88-8.13-7.35-8.13c-4.5,0-7.351,3.449-7.351,8.13
		c0,4.649,2.851,8.129,7.351,8.129C440.628,374.083,443.508,370.604,443.508,365.954z"/>
	<path d="M449.989,375.943v-20.01h13.108v2.221h-10.619v6.449h10.409v2.221h-10.409v9.119H449.989z"/>
	<path d="M474.229,375.943v-20.01h13.109v2.221h-10.62v6.449h10.41v2.221h-10.41v6.898h10.62v2.221H474.229z"/>
	<path d="M505.457,375.943l-11.67-15.959v15.959h-2.489v-20.01h2.55l11.521,15.629v-15.629h2.49v20.01H505.457z"/>
	<path d="M511.728,365.954c0-6.21,4.591-10.351,10.29-10.351c3.539,0,6,1.561,7.771,3.75l-1.98,1.229
		c-1.26-1.62-3.39-2.76-5.788-2.76c-4.381,0-7.711,3.358-7.711,8.13c0,4.738,3.33,8.158,7.711,8.158c2.398,0,4.379-1.17,5.368-2.159
		v-4.079h-6.868v-2.221h9.358v7.229c-1.858,2.069-4.59,3.449-7.858,3.449C516.317,376.333,511.728,372.163,511.728,365.954z"/>
	<path d="M533.928,375.943v-20.01h2.49v20.01H533.928z"/>
	<path d="M555.258,375.943l-11.67-15.959v15.959h-2.49v-20.01h2.551l11.52,15.629v-15.629h2.49v20.01H555.258z"/>
	<path d="M562.338,375.943v-20.01h13.109v2.221h-10.62v6.449h10.409v2.221h-10.409v6.898h10.62v2.221H562.338z"/>
	<path d="M579.406,375.943v-20.01h13.108v2.221h-10.618v6.449h10.409v2.221h-10.409v6.898h10.618v2.221H579.406z"/>
	<path d="M608.057,375.943l-5.1-7.949h-3.99v7.949h-2.49v-20.01h8.039c3.66,0,6.271,2.34,6.271,6.029c0,3.6-2.46,5.58-5.19,5.819
		l5.4,8.159h-2.94V375.943z M608.206,361.964c0-2.25-1.62-3.81-3.989-3.81h-5.25v7.648h5.25
		C606.586,365.805,608.206,364.214,608.206,361.964z"/>
	<path d="M614.716,375.943v-20.01h2.489v20.01H614.716z"/>
	<path d="M636.045,375.943l-11.67-15.959v15.959h-2.489v-20.01h2.55l11.521,15.629v-15.629h2.49v20.01H636.045z"/>
	<path d="M642.315,365.954c0-6.21,4.59-10.351,10.29-10.351c3.538,0,6,1.561,7.77,3.75l-1.98,1.229c-1.26-1.62-3.39-2.76-5.788-2.76
		c-4.381,0-7.71,3.358-7.71,8.13c0,4.738,3.329,8.158,7.71,8.158c2.398,0,4.379-1.17,5.368-2.159v-4.079h-6.868v-2.221h9.358v7.229
		c-1.858,2.069-4.59,3.449-7.858,3.449C646.905,376.333,642.315,372.163,642.315,365.954z"/>
</g>
</svg>
